<svg xmlns="http://www.w3.org/2000/svg" xmlns:xlink="http://www.w3.org/1999/xlink" width="409" zoomAndPan="magnify" viewBox="0 0 306.75 115.499997" height="154" preserveAspectRatio="xMidYMid meet" version="1.0"><defs><g/><clipPath id="0be682f0cd"><path d="M 239.472656 93.5625 L 260.238281 93.5625 L 260.238281 114.328125 L 239.472656 114.328125 Z M 239.472656 93.5625 " clip-rule="nonzero"/></clipPath><clipPath id="08e746f892"><path d="M 249.855469 93.5625 L 251.386719 95.800781 L 253.621094 94.269531 L 254.246094 96.910156 L 256.878906 96.296875 L 256.511719 98.984375 L 259.1875 99.367188 L 257.878906 101.742188 L 260.238281 103.066406 L 258.160156 104.808594 L 259.882812 106.898438 L 257.324219 107.769531 L 258.175781 110.34375 L 255.476562 110.226562 L 255.34375 112.9375 L 252.867188 111.84375 L 251.773438 114.328125 L 249.855469 112.410156 L 247.941406 114.328125 L 246.84375 111.84375 L 244.367188 112.9375 L 244.238281 110.226562 L 241.535156 110.34375 L 242.390625 107.769531 L 239.828125 106.898438 L 241.550781 104.808594 L 239.472656 103.066406 L 241.832031 101.742188 L 240.523438 99.367188 L 243.199219 98.984375 L 242.832031 96.296875 L 245.464844 96.910156 L 246.089844 94.269531 L 248.324219 95.800781 Z M 249.855469 93.5625 " clip-rule="nonzero"/></clipPath></defs><g clip-path="url(#0be682f0cd)"><g clip-path="url(#08e746f892)"><path fill="#ffffff" d="M 239.472656 93.5625 L 260.238281 93.5625 L 260.238281 114.328125 L 239.472656 114.328125 Z M 239.472656 93.5625 " fill-opacity="1" fill-rule="nonzero"/></g></g><g fill="#ea513f" fill-opacity="1"><g transform="translate(30.408657, 65.478182)"><g><path d="M 25.984375 -38.21875 L 41.140625 -6.90625 C 41.773438 -5.632812 42.09375 -4.679688 42.09375 -4.046875 C 42.09375 -2.691406 41.007812 -1.472656 38.84375 -0.390625 C 37.570312 0.242188 36.566406 0.5625 35.828125 0.5625 C 35.097656 0.5625 34.5 0.390625 34.03125 0.046875 C 33.570312 -0.285156 33.238281 -0.640625 33.03125 -1.015625 C 32.820312 -1.390625 32.53125 -1.945312 32.15625 -2.6875 L 29.234375 -8.75 L 13.6875 -8.75 L 10.78125 -2.6875 C 10.40625 -1.945312 10.113281 -1.40625 9.90625 -1.0625 C 9.695312 -0.726562 9.359375 -0.382812 8.890625 -0.03125 C 8.421875 0.320312 7.820312 0.5 7.09375 0.5 C 6.363281 0.5 5.363281 0.179688 4.09375 -0.453125 C 1.925781 -1.492188 0.84375 -2.691406 0.84375 -4.046875 C 0.84375 -4.679688 1.160156 -5.632812 1.796875 -6.90625 L 16.953125 -38.28125 C 17.359375 -39.132812 17.984375 -39.820312 18.828125 -40.34375 C 19.671875 -40.875 20.5625 -41.140625 21.5 -41.140625 C 23.519531 -41.140625 25.015625 -40.164062 25.984375 -38.21875 Z M 21.4375 -24.75 L 17.734375 -17.0625 L 25.203125 -17.0625 Z M 21.4375 -24.75 "/></g></g></g><g fill="#ea513f" fill-opacity="1"><g transform="translate(73.343668, 65.478182)"><g><path d="M 7.234375 -41.203125 L 17.625 -41.140625 C 23.050781 -41.140625 27.820312 -39.179688 31.9375 -35.265625 C 36.050781 -31.359375 38.109375 -26.550781 38.109375 -20.84375 C 38.109375 -15.144531 36.097656 -10.253906 32.078125 -6.171875 C 28.054688 -2.097656 23.179688 -0.0625 17.453125 -0.0625 L 7.1875 -0.0625 C 4.90625 -0.0625 3.484375 -0.523438 2.921875 -1.453125 C 2.472656 -2.242188 2.25 -3.441406 2.25 -5.046875 L 2.25 -36.25 C 2.25 -37.15625 2.273438 -37.8125 2.328125 -38.21875 C 2.378906 -38.632812 2.554688 -39.125 2.859375 -39.6875 C 3.378906 -40.695312 4.835938 -41.203125 7.234375 -41.203125 Z M 17.625 -9.984375 C 20.320312 -9.984375 22.753906 -10.984375 24.921875 -12.984375 C 27.085938 -14.992188 28.171875 -17.515625 28.171875 -20.546875 C 28.171875 -23.578125 27.113281 -26.109375 25 -28.140625 C 22.882812 -30.179688 20.40625 -31.203125 17.5625 -31.203125 L 12.171875 -31.203125 L 12.171875 -9.984375 Z M 17.625 -9.984375 "/></g></g></g><g fill="#ea513f" fill-opacity="1"><g transform="translate(112.8551, 65.478182)"><g><path d="M 33.734375 -6.953125 C 34.296875 -5.609375 34.578125 -4.640625 34.578125 -4.046875 C 34.578125 -2.617188 33.414062 -1.421875 31.09375 -0.453125 C 29.894531 0.078125 28.929688 0.34375 28.203125 0.34375 C 27.472656 0.34375 26.875 0.164062 26.40625 -0.1875 C 25.9375 -0.550781 25.59375 -0.921875 25.375 -1.296875 C 25 -2.003906 23.535156 -5.390625 20.984375 -11.453125 L 19.25 -11.34375 L 12.171875 -11.34375 L 12.171875 -5 C 12.171875 -4.132812 12.144531 -3.484375 12.09375 -3.046875 C 12.039062 -2.617188 11.863281 -2.128906 11.5625 -1.578125 C 11.039062 -0.566406 9.582031 -0.0625 7.1875 -0.0625 C 4.5625 -0.0625 3.023438 -0.75 2.578125 -2.125 C 2.359375 -2.769531 2.25 -3.742188 2.25 -5.046875 L 2.25 -36.203125 C 2.25 -37.054688 2.273438 -37.695312 2.328125 -38.125 C 2.378906 -38.5625 2.554688 -39.0625 2.859375 -39.625 C 3.378906 -40.632812 4.835938 -41.140625 7.234375 -41.140625 L 19.359375 -41.140625 C 22.648438 -41.140625 25.847656 -39.941406 28.953125 -37.546875 C 30.453125 -36.390625 31.6875 -34.816406 32.65625 -32.828125 C 33.632812 -30.847656 34.125 -28.640625 34.125 -26.203125 C 34.125 -21.984375 32.722656 -18.503906 29.921875 -15.765625 C 30.742188 -13.785156 32.015625 -10.847656 33.734375 -6.953125 Z M 12.171875 -21.265625 L 19.359375 -21.265625 C 20.441406 -21.265625 21.523438 -21.675781 22.609375 -22.5 C 23.703125 -23.320312 24.25 -24.554688 24.25 -26.203125 C 24.25 -27.859375 23.703125 -29.101562 22.609375 -29.9375 C 21.523438 -30.78125 20.40625 -31.203125 19.25 -31.203125 L 12.171875 -31.203125 Z M 12.171875 -21.265625 "/></g></g></g><g fill="#ea513f" fill-opacity="1"><g transform="translate(148.269465, 65.478182)"><g><path d="M 2.25 -36.203125 C 2.25 -37.054688 2.273438 -37.695312 2.328125 -38.125 C 2.378906 -38.5625 2.554688 -39.0625 2.859375 -39.625 C 3.378906 -40.632812 4.835938 -41.140625 7.234375 -41.140625 C 9.859375 -41.140625 11.414062 -40.445312 11.90625 -39.0625 C 12.082031 -38.425781 12.171875 -37.453125 12.171875 -36.140625 L 12.171875 -4.9375 C 12.171875 -4.039062 12.144531 -3.382812 12.09375 -2.96875 C 12.039062 -2.5625 11.863281 -2.078125 11.5625 -1.515625 C 11.039062 -0.503906 9.582031 0 7.1875 0 C 4.5625 0 3.023438 -0.707031 2.578125 -2.125 C 2.359375 -2.726562 2.25 -3.6875 2.25 -5 Z M 2.25 -36.203125 "/></g></g></g><g fill="#ea513f" fill-opacity="1"><g transform="translate(162.693378, 65.478182)"><g><path d="M 27.953125 -10.78125 L 28.953125 -11.5 C 30.234375 -12.25 31.132812 -12.625 31.65625 -12.625 C 32.8125 -12.625 34.066406 -11.578125 35.421875 -9.484375 C 36.242188 -8.171875 36.65625 -7.117188 36.65625 -6.328125 C 36.65625 -5.546875 36.398438 -4.894531 35.890625 -4.375 C 35.390625 -3.851562 34.800781 -3.382812 34.125 -2.96875 C 33.445312 -2.5625 32.800781 -2.171875 32.1875 -1.796875 C 31.570312 -1.421875 30.304688 -0.929688 28.390625 -0.328125 C 26.484375 0.265625 24.640625 0.5625 22.859375 0.5625 C 21.085938 0.5625 19.296875 0.328125 17.484375 -0.140625 C 15.671875 -0.609375 13.800781 -1.394531 11.875 -2.5 C 9.945312 -3.601562 8.210938 -4.945312 6.671875 -6.53125 C 5.140625 -8.125 3.878906 -10.164062 2.890625 -12.65625 C 1.898438 -15.144531 1.40625 -17.847656 1.40625 -20.765625 C 1.40625 -23.679688 1.890625 -26.328125 2.859375 -28.703125 C 3.835938 -31.078125 5.082031 -33.039062 6.59375 -34.59375 C 8.113281 -36.15625 9.84375 -37.457031 11.78125 -38.5 C 15.445312 -40.519531 19.132812 -41.53125 22.84375 -41.53125 C 24.601562 -41.53125 26.390625 -41.257812 28.203125 -40.71875 C 30.015625 -40.175781 31.390625 -39.625 32.328125 -39.0625 L 33.671875 -38.28125 C 34.347656 -37.863281 34.875 -37.523438 35.25 -37.265625 C 36.21875 -36.484375 36.703125 -35.59375 36.703125 -34.59375 C 36.703125 -33.601562 36.3125 -32.566406 35.53125 -31.484375 C 34.070312 -29.460938 32.757812 -28.453125 31.59375 -28.453125 C 30.925781 -28.453125 29.972656 -28.863281 28.734375 -29.6875 C 27.160156 -30.957031 25.066406 -31.59375 22.453125 -31.59375 C 20.015625 -31.59375 17.617188 -30.753906 15.265625 -29.078125 C 14.140625 -28.253906 13.203125 -27.09375 12.453125 -25.59375 C 11.710938 -24.09375 11.34375 -22.394531 11.34375 -20.5 C 11.34375 -18.613281 11.710938 -16.921875 12.453125 -15.421875 C 13.203125 -13.929688 14.160156 -12.757812 15.328125 -11.90625 C 17.609375 -10.25 19.984375 -9.421875 22.453125 -9.421875 C 23.609375 -9.421875 24.703125 -9.570312 25.734375 -9.875 C 26.765625 -10.175781 27.503906 -10.476562 27.953125 -10.78125 Z M 27.953125 -10.78125 "/></g></g></g><g fill="#ea513f" fill-opacity="1"><g transform="translate(200.801704, 65.478182)"><g><path d="M 27.671875 -39.625 C 27.972656 -40.1875 28.476562 -40.578125 29.1875 -40.796875 C 29.894531 -41.023438 30.789062 -41.140625 31.875 -41.140625 C 32.957031 -41.140625 33.816406 -41.046875 34.453125 -40.859375 C 35.097656 -40.671875 35.585938 -40.445312 35.921875 -40.1875 C 36.253906 -39.925781 36.515625 -39.550781 36.703125 -39.0625 C 36.890625 -38.425781 36.984375 -37.453125 36.984375 -36.140625 L 36.984375 -5 C 36.984375 -4.132812 36.953125 -3.484375 36.890625 -3.046875 C 36.835938 -2.617188 36.664062 -2.128906 36.375 -1.578125 C 35.84375 -0.566406 34.378906 -0.0625 31.984375 -0.0625 C 29.367188 -0.0625 27.835938 -0.75 27.390625 -2.125 C 27.160156 -2.769531 27.046875 -3.742188 27.046875 -5.046875 L 27.046875 -16.4375 L 12.171875 -16.4375 L 12.171875 -5 C 12.171875 -4.132812 12.144531 -3.484375 12.09375 -3.046875 C 12.039062 -2.617188 11.863281 -2.128906 11.5625 -1.578125 C 11.039062 -0.566406 9.582031 -0.0625 7.1875 -0.0625 C 4.5625 -0.0625 3.023438 -0.75 2.578125 -2.125 C 2.359375 -2.769531 2.25 -3.742188 2.25 -5.046875 L 2.25 -36.203125 C 2.25 -37.054688 2.273438 -37.695312 2.328125 -38.125 C 2.378906 -38.5625 2.554688 -39.0625 2.859375 -39.625 C 3.378906 -40.632812 4.835938 -41.140625 7.234375 -41.140625 C 9.859375 -41.140625 11.414062 -40.445312 11.90625 -39.0625 C 12.082031 -38.425781 12.171875 -37.453125 12.171875 -36.140625 L 12.171875 -24.6875 L 27.046875 -24.6875 L 27.046875 -36.203125 C 27.046875 -37.054688 27.070312 -37.695312 27.125 -38.125 C 27.1875 -38.5625 27.367188 -39.0625 27.671875 -39.625 Z M 27.671875 -39.625 "/></g></g></g><g fill="#ea513f" fill-opacity="1"><g transform="translate(240.032506, 65.478182)"><g><path d="M 12.171875 -9.9375 L 29.46875 -9.9375 C 30.320312 -9.9375 30.960938 -9.90625 31.390625 -9.84375 C 31.828125 -9.789062 32.328125 -9.613281 32.890625 -9.3125 C 33.898438 -8.789062 34.40625 -7.332031 34.40625 -4.9375 C 34.40625 -2.320312 33.710938 -0.789062 32.328125 -0.34375 C 31.691406 -0.113281 30.71875 0 29.40625 0 L 7.1875 0 C 4.5625 0 3.023438 -0.707031 2.578125 -2.125 C 2.359375 -2.726562 2.25 -3.6875 2.25 -5 L 2.25 -36.203125 C 2.25 -38.109375 2.601562 -39.40625 3.3125 -40.09375 C 4.019531 -40.789062 5.367188 -41.140625 7.359375 -41.140625 L 29.46875 -41.140625 C 30.320312 -41.140625 30.960938 -41.109375 31.390625 -41.046875 C 31.828125 -40.992188 32.328125 -40.816406 32.890625 -40.515625 C 33.898438 -39.992188 34.40625 -38.535156 34.40625 -36.140625 C 34.40625 -33.523438 33.710938 -31.992188 32.328125 -31.546875 C 31.691406 -31.316406 30.71875 -31.203125 29.40625 -31.203125 L 12.171875 -31.203125 L 12.171875 -25.53125 L 23.296875 -25.53125 C 24.148438 -25.53125 24.789062 -25.503906 25.21875 -25.453125 C 25.65625 -25.398438 26.15625 -25.222656 26.71875 -24.921875 C 27.726562 -24.398438 28.234375 -22.941406 28.234375 -20.546875 C 28.234375 -17.921875 27.519531 -16.382812 26.09375 -15.9375 C 25.457031 -15.71875 24.484375 -15.609375 23.171875 -15.609375 L 12.171875 -15.609375 Z M 12.171875 -9.9375 "/></g></g></g></svg>